 <svg version="1.0" xmlns="http://www.w3.org/2000/svg"  width="300.000000pt" height="231.000000pt" viewBox="0 0 300.000000 231.000000"  preserveAspectRatio="xMidYMid meet">  <g transform="translate(0.000000,231.000000) scale(0.100000,-0.100000)" fill="#000000" stroke="none"> <path d="M1192 2073 l-362 -216 0 -489 0 -488 240 0 240 0 1 348 0 347 132 78 c73 43 133 73 135 67 6 -16 18 -12 74 24 29 18 63 37 76 41 21 6 17 10 -42 45 -37 22 -79 48 -95 59 l-29 21 -202 -123 -201 -122 1 -317 1 -318 -88 0 -88 0 0 366 0 365 282 171 282 170 209 -121 209 -121 141 0 c78 0 142 3 142 8 0 5 -391 243 -650 394 l-46 27 -362 -216z m452 124 c39 -24 112 -67 161 -97 50 -29 113 -67 140 -85 28 -18 76 -47 108 -66 31 -18 57 -37 57 -41 0 -4 -32 -8 -70 -8 -78 0 -72 -3 -340 156 -135 80 -163 84 -235 35 -25 -17 -60 -38 -78 -47 -18 -9 -54 -31 -82 -49 -27 -17 -106 -65 -175 -106 -69 -40 -137 -85 -152 -100 l-28 -27 0 -359 c0 -430 -8 -403 120 -403 127 0 120 -19 120 339 l0 299 33 24 c17 14 57 39 88 56 31 17 96 56 145 87 48 30 95 55 104 55 10 0 37 -14 60 -31 l44 -32 -23 -18 c-21 -17 -42 -24 -64 -20 -19 3 -227 -118 -269 -158 l-28 -25 0 -322 c0 -248 -3 -325 -12 -331 -19 -11 -352 -15 -382 -4 l-25 10 -1 447 0 446 29 27 c16 14 46 35 67 46 21 11 160 93 308 182 149 90 280 163 290 163 11 0 51 -19 90 -43z"/> <path d="M1985 1690 c-187 -25 -357 -146 -441 -313 -49 -97 -64 -176 -64 -349 l0 -148 113 0 c65 0 139 7 177 16 218 51 396 224 455 444 9 30 18 124 22 208 l6 152 -104 -1 c-57 -1 -131 -5 -164 -9z m223 -159 c2 -111 0 -132 -24 -205 -80 -251 -275 -397 -546 -411 -98 -6 -109 -4 -116 12 -4 10 -6 81 -5 158 1 152 13 202 75 312 43 77 148 169 237 211 89 41 142 50 276 48 l100 -1 3 -124z"/> <path d="M1843 1555 c-63 -29 -72 -35 -139 -102 -57 -57 -104 -141 -104 -184 0 -30 49 -79 79 -79 28 0 68 36 106 96 32 50 116 123 141 124 18 0 74 68 74 90 0 10 -12 32 -26 49 -32 38 -60 39 -131 6z m96 -15 c47 -25 32 -70 -33 -99 -60 -26 -132 -94 -168 -158 -25 -45 -34 -53 -59 -53 -48 0 -56 31 -23 98 37 76 118 155 196 192 73 35 64 33 87 20z"/> <path d="M1678 359 l-3 -127 -99 124 -99 124 -44 0 -43 0 0 -212 0 -213 51 -1 51 -1 -4 129 c-1 70 -1 128 2 127 3 0 50 -57 105 -127 98 -124 101 -126 143 -128 l42 -2 0 216 0 217 -50 0 -49 0 -3 -126z m-186 47 c13 -17 31 -40 41 -51 11 -11 36 -42 57 -70 20 -27 49 -56 64 -64 24 -13 28 -13 41 5 17 23 27 84 22 139 -3 43 10 85 22 67 9 -14 6 -315 -3 -330 -12 -20 -34 -2 -110 93 -41 51 -89 103 -106 115 -30 21 -33 21 -48 6 -13 -13 -18 -40 -20 -116 -3 -80 -7 -98 -18 -93 -11 4 -14 36 -14 158 0 84 3 160 6 168 8 22 41 9 66 -27z"/> <path d="M2343 471 c-47 -22 -72 -54 -79 -102 -10 -68 33 -108 146 -140 83 -23 100 -33 100 -60 0 -42 -103 -53 -179 -19 -24 11 -45 20 -46 20 -8 0 -26 -70 -21 -79 20 -32 173 -52 245 -31 115 33 133 174 29 220 -24 10 -65 24 -92 30 -64 14 -86 27 -86 50 0 46 86 65 157 35 41 -17 50 -13 59 31 5 26 2 32 -23 43 -49 24 -162 25 -210 2z m13 -52 c-16 -12 -26 -30 -26 -46 0 -30 36 -83 56 -83 8 0 14 -4 14 -10 0 -13 -17 -13 -25 0 -4 6 -11 8 -16 5 -15 -10 -59 42 -59 69 0 29 45 86 67 86 11 0 7 -7 -11 -21z m183 -185 c39 -33 41 -74 6 -109 -34 -35 -50 -31 -23 5 28 38 17 74 -31 107 -33 23 -33 23 -8 23 14 0 39 -12 56 -26z"/> <path d="M40 265 l1 -215 30 0 31 0 -3 88 -3 87 107 -3 107 -3 0 25 0 26 -107 0 -108 0 0 80 0 80 123 0 c67 0 122 4 122 9 0 39 -9 41 -156 41 l-144 0 0 -215z"/> <path d="M430 268 l0 -213 140 0 c139 0 140 0 140 23 0 22 -2 22 -115 22 l-115 0 0 190 0 190 -25 0 -25 0 0 -212z"/> <path d="M780 264 l0 -215 25 3 25 3 2 213 3 212 -27 0 -28 0 0 -216z"/> <path d="M960 265 l0 -215 25 0 c24 0 25 2 25 68 l0 67 89 1 c102 2 153 21 182 68 25 41 25 112 -1 154 -33 53 -86 72 -212 72 l-108 0 0 -215z m261 136 c19 -20 29 -40 29 -60 0 -82 -43 -111 -165 -111 l-75 0 0 100 0 100 91 0 c87 0 92 -1 120 -29z"/> <path d="M1880 266 l0 -214 165 2 165 1 0 42 0 41 -112 -1 -113 -2 -3 48 -3 47 100 0 101 0 0 40 0 40 -100 0 -100 0 0 45 0 45 109 0 109 0 4 40 4 40 -163 0 -163 0 0 -214z m100 176 c0 -4 -7 -17 -15 -29 -25 -35 -22 -89 5 -118 l23 -25 -21 -23 c-29 -30 -29 -89 -1 -128 l20 -29 -30 0 c-16 0 -33 5 -37 11 -9 16 -11 311 -2 332 8 17 58 25 58 9z"/> <path d="M2612 440 l1 -40 69 0 68 0 0 -174 0 -175 50 1 50 0 0 174 0 174 70 0 70 0 0 40 0 40 -190 0 -190 0 2 -40z m232 1 c3 -4 -1 -17 -9 -27 -11 -14 -14 -53 -15 -154 0 -135 -9 -181 -30 -150 -6 9 -8 62 -6 125 5 120 -5 179 -31 190 -15 5 -15 7 -3 15 19 12 87 13 94 1z"/> </g> </svg> 